<svg width="166" height="253" xmlns="http://www.w3.org/2000/svg"><path d="M140.283 33.13q-1.6 1.95-4.05 3.85l2.4 7.15q1.2 3.25 2.85 10.15.5 2.5.6 4.45.8 9.65-9.35 15.75-7.75 4.75-20.05 6.65 8.15 1 15 8.85 3.35 4 8.45 12.1 6.3 10 8.6 13.1l8.3 10.8q5.55 7.35 7.8 12.55 6.55 15.1-10.35 20.2-9.2 2.8-17.4-2.3-1.75 6.35-5.65 11.45 3.1 10.1 4.5 24.65l1.6 18.1q.85 10.65 2.05 17.15l1.3 5.75q.8 3.45.8 5.6 0 6.3-6.05 9.1-4.1 1.95-14.6 1.55l-15.25-.85q-9.55-.05-13.25-2.8-3.1-2.3-2.6-7.1.25-2.55 2.6-9.95 2.3-7.3 2.6-11.5.65-9.45.45-22.75l-.2-11.75h-15.1l-.2 10.35q-.3 13.3.4 22.75.3 4.2 2.6 11.5 2.4 7.4 2.6 10 .5 4.75-2.65 7.05-3.6 2.75-13.1 2.8l-15.3.85q-10.45.4-14.55-1.5-6.1-2.85-6.05-9.15 0-2.15.8-5.6l1.3-5.75q1.2-6.5 2.05-17.05l1.6-18.2q1.05-10.9 3.05-19.3-4.75-5.45-6.25-13.4-8.4 5.5-17.95 2.6-16.85-5.1-10.3-20.2 2.25-5.1 7.8-12.55l8.3-10.8q2.3-3.15 8.6-13.1 5.1-8.1 8.45-12.1 8.3-9.45 18.55-8.9.7-1.35 1.5-2.65-1.05-.15-2.05-.3-7.8-1.1-13.85-3.25-4.25-1.55-7.7-3.6-10.05-6.15-9.35-15.8.15-2.35.65-4.8.8-3.9 2.05-7.65-8.45-6.45-9.6-18.25-.65-5.85 1-10.45 1.9-5.45 6.5-10.1 4.55-4.6 16.3-3.95 10.15.6 20 8.15l2.05-1.3q2.95-1.45 6.7-2.5 6.3-1.8 13.8-2.05.65-.05 1.3-.05 8.1-.15 15.3 1.45 5.85 1.3 9.95 3.6 2-6.65 12.2-6.35 4.1.15 8.05 1.45 4 1.3 6.85 4.1 5.4 5.6 5.45 13.9 0 5.95-2.85 10.15zm-4.05 3.85-.85-2.5q-2.2-5.95-5.45-8.65 3.25 2.7 5.45 8.65zm-19.35.8-19.7 4.75q3.75 15.4 20.3 10.5 12.45-3.7 6.4-16.9zm-4.15-26.6q-.8-.5-1.6-1.05-.3-.2-.55-.25.25.05.55.25.8.55 1.6 1.05zm6.85 49.8q3.3 1.3 7.9 1.3 4.5 0 7.85-1.3 3.2-1.3 3.2-3.1t-3.2-3.1q-3.25-1.3-7.85-1.3-4.7 0-7.9 1.3-3.25 1.3-3.25 3.1t3.25 3.1zm-31.9 3.25v.35q.95 2.7 3.3 3.35 2.3.65 4.5-.35 2.3-1.05 3.3-2.6.1-.15.15-.25.8-1.55-.3-2.8 1.1 1.25.3 2.8-.05.1-.15.25-1 1.55-3.3 2.6-2.2 1-4.5.35-2.35-.65-3.3-3.35v-.35zm0 .35q-.15 2.2-2.5 3.45-2.3 1.2-5.25.95-3.1-.4-4.25-2.2-1.35-2.05.7-5.25-2.05 3.2-.7 5.25 1.15 1.8 4.25 2.2 2.95.25 5.25-.95 2.35-1.25 2.5-3.45zm25 16.55q-.75.1-1.45.2l-.95.15q30.05 48.4 22.8 74.95 7.25-26.55-22.8-74.95l.95-.15q.7-.1 1.45-.2zm-2.4.35-23.95 2.95q-9.85-1.15-28.8-3.7 18.95 2.55 28.8 3.7zm-48.8-70.75-2.05 1.2q-.45.4-.9.75.45-.35.9-.75zm-18.2 25.55q-5.6 12.25 4.7 16.4.8.3 1.75.6 16.5 4.9 20.25-10.6zm-6.5-11.35q-3.2 2.65-5.55 8.6l-3.95 11.8 3.95-11.8q2.35-5.95 5.55-8.6zm2.2 37.05q4.6 0 7.85-1.3t3.25-3.1q0-1.8-3.25-3.1t-7.85-1.3q-4.6 0-7.85 1.3-3.2 1.3-3.2 3.1t3.2 3.1q3.25 1.3 7.85 1.3zm37.3 121.1h-12.7q-16.9-2.2-24.75-11.25 7.85 9.05 24.75 11.25zm51.15-15.2q-7.65 10.05-23.65 15.2h-12.4 12.4q16-5.15 23.65-15.2zm-94.85-9.45q-4.65-25.1 23.45-75.05-28.1 49.95-23.45 75.05z" fill="#CE6B2B"/><path d="M116.883 37.78q6.8 10.6-5 15.5-9.65 3-14.7-10.75zm-68.9 14.9q-7.75-3.45-4.7-16.4l18.45 5.35q1.5 9-12 11.65-.95-.3-1.75-.6z"/><path d="M97.183 42.53q5.05 13.75 14.7 10.75 11.8-4.9 5-15.5l7-1.65q6.05 13.2-6.4 16.9-16.55 4.9-20.3-10.5zm-47.45 10.75q13.5-2.65 12-11.65l-18.45-5.35 26.7 6.4q-3.75 15.5-20.25 10.6zm-1.75-.6q-10.3-4.15-4.7-16.4-3.05 12.95 4.7 16.4z" fill="#FFF"/><path d="M119.583 60.98q-3.25-1.3-3.25-3.1t3.25-3.1q3.2-1.3 7.9-1.3 4.6 0 7.85 1.3 3.2 1.3 3.2 3.1t-3.2 3.1q-3.35 1.3-7.85 1.3-4.6 0-7.9-1.3zm-80.6 1q-4.6 0-7.85-1.3-3.2-1.3-3.2-3.1t3.2-3.1q3.25-1.3 7.85-1.3t7.85 1.3q3.25 1.3 3.25 3.1t-3.25 3.1q-3.25 1.3-7.85 1.3z" fill="#FFDBFF"/><path d="M140.283 33.13q-1.6 1.95-4.05 3.85l2.4 7.15q1.2 3.25 2.85 10.15.5 2.5.6 4.45.8 9.65-9.35 15.75-7.75 4.75-20.05 6.65 8.15 1 15 8.85 3.35 4 8.45 12.1 6.3 10 8.6 13.1l8.3 10.8q5.55 7.35 7.8 12.55 6.55 15.1-10.35 20.2-9.2 2.8-17.4-2.3-1.75 6.35-5.65 11.45 3.1 10.1 4.5 24.65l1.6 18.1q.85 10.65 2.05 17.15l1.3 5.75q.8 3.45.8 5.6 0 6.3-6.05 9.1-4.1 1.95-14.6 1.55l-15.25-.85q-9.55-.05-13.25-2.8-3.1-2.3-2.6-7.1.25-2.55 2.6-9.95 2.3-7.3 2.6-11.5.65-9.45.45-22.75l-.2-11.75h-15.1l-.2 10.35q-.3 13.3.4 22.75.3 4.2 2.6 11.5 2.4 7.4 2.6 10 .5 4.75-2.65 7.05-3.6 2.75-13.1 2.8l-15.3.85q-10.45.4-14.55-1.5-6.1-2.85-6.05-9.15 0-2.15.8-5.6l1.3-5.75q1.2-6.5 2.05-17.05l1.6-18.2q1.05-10.9 3.05-19.3-4.75-5.45-6.25-13.4-8.4 5.5-17.95 2.6-16.85-5.1-10.3-20.2 2.25-5.1 7.8-12.55l8.3-10.8q2.3-3.15 8.6-13.1 5.1-8.1 8.45-12.1 8.3-9.45 18.55-8.9.7-1.35 1.5-2.65-1.05-.15-2.05-.3-7.8-1.1-13.85-3.25-4.25-1.55-7.7-3.6-10.05-6.15-9.35-15.8.15-2.35.65-4.8.8-3.9 2.05-7.65-8.45-6.45-9.6-18.25-.65-5.85 1-10.45 1.9-5.45 6.5-10.1 4.55-4.6 16.3-3.95 10.15.6 20 8.15l2.05-1.3q2.95-1.45 6.7-2.5 6.3-1.8 13.8-2.05.65-.05 1.3-.05 8.1-.15 15.3 1.45 5.85 1.3 9.95 3.6 2-6.65 12.2-6.35 4.1.15 8.05 1.45 4 1.3 6.85 4.1 5.4 5.6 5.45 13.9 0 5.95-2.85 10.15zm-4.05 3.85-.85-2.5q-2.2-5.95-5.45-8.65m-17.2-14.65q-.8-.5-1.6-1.05-.3-.2-.55-.25m2.1 71.25q-.75.1-1.45.2l-.95.15q30.05 48.4 22.8 74.95m-22.8-74.95-23.95 2.95q-9.85-1.15-28.8-3.7m3.95-70-2.05 1.2q-.45.4-.9.75m-21.75 12.25q-3.2 2.65-5.55 8.6l-3.95 11.8m49 137.75h-12.7q-16.9-2.2-24.75-11.25m88.6-3.95q-7.65 10.05-23.65 15.2h-12.4m-58.8-24.65q-4.65-25.1 23.45-75.05" fill="none" stroke-width="5" stroke-linejoin="round" stroke-linecap="round" stroke="#000"/><path d="m116.883 37.78 7-1.65q6.05 13.2-6.4 16.9-16.55 4.9-20.3-10.5zm-29.2 26.45v.35q.95 2.7 3.3 3.35 2.3.65 4.5-.35 2.3-1.05 3.3-2.6.1-.15.15-.25.8-1.55-.3-2.8m-10.95 2.65q-.15 2.2-2.5 3.45-2.3 1.2-5.25.95-3.1-.4-4.25-2.2-1.35-2.05.7-5.25m-26.65-8.25q16.5 4.9 20.25-10.6l-26.7-6.4q-5.6 12.25 4.7 16.4" fill="none" stroke-width="3" stroke-linejoin="round" stroke-linecap="round" stroke="#000"/><path d="M116.883 37.78q6.8 10.6-5 15.5-9.65 3-14.7-10.75m-53.9-6.25 18.45 5.35q1.5 9-12 11.65m-1.75-.6q.8.3 1.75.6m-1.75-.6q-7.75-3.45-4.7-16.4" fill="none" stroke-width="2" stroke-linejoin="round" stroke-linecap="round" stroke="#000"/></svg>