<?xml version="1.0"?>
<!DOCTYPE svg PUBLIC "-//W3C//DTD SVG 1.1//EN" "http://www.w3.org/Graphics/SVG/1.1/DTD/svg11.dtd">
<svg version='1.1' width='71px' height='71px' xmlns='http://www.w3.org/2000/svg' xmlns:xlink='http://www.w3.org/1999/xlink'>
	<g transform="translate(1,1)">
		<path d="M 54.35 13.75 Q 45.9 5.3 34.05 5.3 Q 22.15 5.3 13.75 13.75 Q 5.3 22.2 5.3 34.05 Q 5.3 45.95 13.75 54.35 Q 22.15 62.8 34.05 62.8 Q 45.9 62.8 54.35 54.35 Q 62.8 45.95 62.8 34.05 Q 62.8 22.2 54.35 13.75 Z M 68.1 34.05 Q 68.1 48.1 58.1 58.1 Q 48.1 68.1 34.05 68.1 Q 20 68.1 10 58.1 Q 0 48.1 0 34.05 Q 0 20 10 10 Q 20 0 34.05 0 Q 48.1 0 58.1 10 Q 68.1 20 68.1 34.05 Z" fill="#FF0000"/>
		<path d="M 68.1 34.05 Q 68.1 48.1 58.1 58.1 Q 48.1 68.1 34.05 68.1 Q 20 68.1 10 58.1 Q 0 48.1 0 34.05 Q 0 20 10 10 Q 20 0 34.05 0 Q 48.1 0 58.1 10 Q 68.1 20 68.1 34.05 Z" fill="none" stroke-width="2" stroke-linejoin="round" stroke="#FFFFFF"/>
	</g>
</svg>
