<?xml version="1.0"?>
<!DOCTYPE svg PUBLIC "-//W3C//DTD SVG 1.1//EN" "http://www.w3.org/Graphics/SVG/1.1/DTD/svg11.dtd">
<svg version='1.1' width='57px' height='56px' xmlns='http://www.w3.org/2000/svg' xmlns:xlink='http://www.w3.org/1999/xlink'>
	<g transform="translate(-170.04,-38.975)">
		<path d="M 225.75 39.6 Q 226.7 41.2 225.45 42.75 L 201.4 66.8 L 201.4 67.1 L 225.45 91.2 Q 226.7 92.75 225.75 94.3 Q 224.2 95.55 222.65 94.3 L 198.25 69.95 L 197.95 69.95 L 173.6 94.3 Q 172 95.55 170.45 94.3 Q 169.5 92.75 170.75 91.2 L 194.85 67.1 L 194.85 66.8 L 170.75 42.75 Q 169.5 41.2 170.45 39.6 Q 172 38.35 173.6 39.6 L 197.95 64 L 198.25 64 L 222.65 39.6 Q 224.2 38.35 225.75 39.6 Z" fill="#0000FF"/>
	</g>
</svg>
