<?xml version="1.0"?>
<!DOCTYPE svg PUBLIC "-//W3C//DTD SVG 1.1//EN" "http://www.w3.org/Graphics/SVG/1.1/DTD/svg11.dtd">
<svg version='1.1' width='166px' height='253px' xmlns='http://www.w3.org/2000/svg' xmlns:xlink='http://www.w3.org/1999/xlink'>
	<g transform="translate(2.47564,2.50523)">
	<g transform="translate(-515.3,-79.95)">
			<path d="M 654.55 135.45 Q 655.35 145.05 645.2 151.3 Q 636.95 156.2 623.65 158.1 L 622.8 158.2 Q 632.5 158 640.5 167.25 Q 643.9 171.2 649 179.35 Q 655.25 189.3 657.55 192.5 L 665.95 203.35 Q 671.5 210.7 673.7 215.9 Q 680.25 231.05 663.35 236.1 Q 654.1 238.9 645.9 233.8 Q 644.15 240.1 640.3 245.2 Q 643.4 255.3 644.8 269.9 L 646.4 288.05 Q 647.25 298.65 648.5 305.15 L 649.8 310.95 Q 650.6 314.4 650.6 316.55 Q 650.6 322.8 644.55 325.7 Q 640.45 327.65 629.9 327.2 L 614.65 326.35 Q 605.15 326.3 601.45 323.55 Q 598.35 321.3 598.85 316.5 Q 599.05 313.95 601.45 306.45 Q 603.75 299.25 604.05 294.9 Q 604.7 285.5 604.5 272.2 L 604.3 260.45 L 589.2 260.45 L 589 270.85 Q 588.7 284.2 589.4 293.6 Q 589.7 297.9 592 305.15 Q 594.4 312.6 594.6 315.1 Q 595.1 319.95 591.95 322.25 Q 588.35 325 578.85 325.05 L 563.5 325.9 Q 553.05 326.3 548.95 324.35 Q 542.8 321.5 542.9 315.25 Q 542.9 313 543.65 309.55 L 544.95 303.85 Q 546.2 297.3 547.05 286.7 L 548.65 268.55 Q 549.7 257.65 551.7 249.25 Q 546.9 243.75 545.4 235.8 Q 537 241.2 527.55 238.35 Q 510.6 233.3 517.15 218.15 Q 519.45 212.95 524.95 205.6 L 533.3 194.8 Q 535.6 191.6 541.85 181.65 Q 547 173.45 550.35 169.55 Q 558.65 159.95 568.85 160.45 Q 569.65 159 570.5 157.55 Q 569.15 157.35 567.75 157.15 Q 554.4 155.3 546.2 150.4 Q 541.75 147.65 539.35 144.25 Q 536.4 139.85 536.85 134.5 Q 537.25 128.8 539.5 122.05 Q 539.5 122 539.55 121.9 Q 531.85 110.8 530.9 105.1 Q 529.05 94 535.95 86.35 Q 542.45 79.35 554.25 80 Q 564.7 80.5 573.85 87.35 Q 582.45 81.9 597.85 81.55 Q 606 81.4 613.2 82.95 Q 619.05 84.25 623.15 86.6 Q 625.1 79.95 635.4 80.25 Q 639.5 80.4 643.45 81.7 Q 648.5 83.5 651.45 87.1 Q 655.7 92.35 655.75 99.7 Q 655.75 108.85 648.8 113.9 Q 654.2 130.9 654.55 135.45 Z M 573.85 87.35 Q 572.35 88.25 571.1 89.4 Q 572.35 88.25 573.85 87.35 Z M 623.15 86.6 L 625.3 87.9 Z M 539.55 121.9 L 543.45 110.3 Q 545.85 104.25 549 101.65 Q 545.85 104.25 543.45 110.3 Z M 543.55 137.5 Q 546.85 138.75 551.4 138.75 Q 555.9 138.75 559.25 137.5 Q 562.5 136.2 562.5 134.4 Q 562.5 132.55 559.25 131.35 Q 556 130.05 551.4 130.05 Q 546.75 130.05 543.55 131.35 Q 540.3 132.55 540.3 134.4 Q 540.3 136.2 543.55 137.5 Z M 562.1 130.1 Q 578.7 134.95 582.45 119.5 L 555.7 113.1 L 582.45 119.5 Q 578.7 134.95 562.1 130.1 Q 575.65 127.45 574.15 118.35 L 555.7 113.1 Q 552.65 125.9 560.15 129.4 Q 561.05 129.8 562.1 130.1 Q 561.05 129.8 560.15 129.4 Q 552.65 125.9 555.7 113.1 L 574.15 118.35 Q 575.65 127.45 562.1 130.1 Z M 555.7 113.1 Q 550.15 125.2 560.15 129.4 Q 550.15 125.2 555.7 113.1 Z M 636.45 112.9 Q 642.5 126.15 630.05 129.9 Q 613.4 134.75 609.65 119.3 L 629.4 114.6 L 636.45 112.9 L 629.4 114.6 L 609.65 119.3 Q 613.4 134.75 630.05 129.9 Q 642.5 126.15 636.45 112.9 Z M 640.05 139 Q 644.7 139 647.9 137.7 Q 651.15 136.4 651.15 134.6 Q 651.15 132.8 647.9 131.55 Q 644.6 130.25 640.05 130.25 Q 635.45 130.25 632.15 131.55 Q 628.85 132.8 628.85 134.6 Q 628.85 136.45 632.15 137.7 Q 635.4 139 640.05 139 Z M 629.4 114.6 Q 636.25 125.2 624.35 130.1 Q 614.7 133 609.65 119.3 Q 614.7 133 624.35 130.1 Q 636.25 125.2 629.4 114.6 Z M 606.3 132.5 L 606.3 155.35 L 587.25 155.35 L 587.25 132.5 L 606.3 132.5 L 587.25 132.5 L 587.25 155.35 L 606.3 155.35 Z M 645.9 233.8 Q 653.25 207.15 622.8 158.2 L 598.7 161.1 Q 591.9 160.45 570.5 157.55 Q 591.9 160.45 598.7 161.1 L 622.8 158.2 Q 653.25 207.15 645.9 233.8 Z M 589.2 260.45 L 576.4 260.45 Q 559.55 258.25 551.7 249.25 Q 559.55 258.25 576.4 260.45 Z M 640.3 245.2 Q 632.65 255.3 616.6 260.45 L 604.3 260.45 L 616.6 260.45 Q 632.65 255.3 640.3 245.2 Z M 545.4 235.8 Q 540.7 210.6 568.85 160.45 Q 540.7 210.6 545.4 235.8 Z M 642.35 102.6 Q 644.45 104.4 648.8 113.9 Q 644.45 104.4 642.35 102.6 Z" fill="#FFFFFF"/>
			<path d="M 543.55 137.5 Q 540.3 136.2 540.3 134.4 Q 540.3 132.55 543.55 131.35 Q 546.75 130.05 551.4 130.05 Q 556 130.05 559.25 131.35 Q 562.5 132.55 562.5 134.4 Q 562.5 136.2 559.25 137.5 Q 555.9 138.75 551.4 138.75 Q 546.85 138.75 543.55 137.5 Z M 640.05 139 Q 635.4 139 632.15 137.7 Q 628.85 136.45 628.85 134.6 Q 628.85 132.8 632.15 131.55 Q 635.45 130.25 640.05 130.25 Q 644.6 130.25 647.9 131.55 Q 651.15 132.8 651.15 134.6 Q 651.15 136.4 647.9 137.7 Q 644.7 139 640.05 139 Z" fill="#B3B3B3"/>
			<path d="M 654.55 135.45 Q 655.35 145.05 645.2 151.3 Q 636.95 156.2 623.65 158.1 L 622.8 158.2 Q 632.5 158 640.5 167.25 Q 643.9 171.2 649 179.35 Q 655.25 189.3 657.55 192.5 L 665.95 203.35 Q 671.5 210.7 673.7 215.9 Q 680.25 231.05 663.35 236.1 Q 654.1 238.9 645.9 233.8 Q 644.15 240.1 640.3 245.2 Q 643.4 255.3 644.8 269.9 L 646.4 288.05 Q 647.25 298.65 648.5 305.15 L 649.8 310.95 Q 650.6 314.4 650.6 316.55 Q 650.6 322.8 644.55 325.7 Q 640.45 327.65 629.9 327.2 L 614.65 326.35 Q 605.15 326.3 601.45 323.55 Q 598.35 321.3 598.85 316.5 Q 599.05 313.95 601.45 306.45 Q 603.75 299.25 604.05 294.9 Q 604.7 285.5 604.5 272.2 L 604.3 260.45 L 589.2 260.45 L 589 270.85 Q 588.7 284.2 589.4 293.6 Q 589.7 297.9 592 305.15 Q 594.4 312.6 594.6 315.1 Q 595.1 319.95 591.95 322.25 Q 588.35 325 578.85 325.05 L 563.5 325.9 Q 553.05 326.3 548.95 324.35 Q 542.8 321.5 542.9 315.25 Q 542.9 313 543.65 309.55 L 544.95 303.85 Q 546.2 297.3 547.05 286.7 L 548.65 268.55 Q 549.7 257.65 551.7 249.25 Q 546.9 243.75 545.4 235.8 Q 537 241.2 527.55 238.35 Q 510.6 233.3 517.15 218.15 Q 519.45 212.95 524.95 205.6 L 533.3 194.8 Q 535.6 191.6 541.85 181.65 Q 547 173.45 550.35 169.55 Q 558.65 159.95 568.85 160.45 Q 569.65 159 570.5 157.55 Q 569.15 157.35 567.75 157.15 Q 554.4 155.3 546.2 150.4 Q 541.75 147.65 539.35 144.25 Q 536.4 139.85 536.85 134.5 Q 537.25 128.8 539.5 122.05 Q 539.5 122 539.55 121.9 Q 531.85 110.8 530.9 105.1 Q 529.05 94 535.95 86.35 Q 542.45 79.35 554.25 80 Q 564.7 80.5 573.85 87.35 Q 582.45 81.9 597.85 81.55 Q 606 81.4 613.2 82.95 Q 619.05 84.25 623.15 86.6 Q 625.1 79.95 635.4 80.25 Q 639.5 80.4 643.45 81.7 Q 648.5 83.5 651.45 87.1 Q 655.7 92.35 655.75 99.7 Q 655.75 108.85 648.8 113.9 Q 654.2 130.9 654.55 135.45 Z M 573.85 87.35 Q 572.35 88.25 571.1 89.4 M 623.15 86.6 L 625.3 87.9 M 539.55 121.9 L 543.45 110.3 Q 545.85 104.25 549 101.65 M 645.9 233.8 Q 653.25 207.15 622.8 158.2 L 598.7 161.1 Q 591.9 160.45 570.5 157.55 M 589.2 260.45 L 576.4 260.45 Q 559.55 258.25 551.7 249.25 M 640.3 245.2 Q 632.65 255.3 616.6 260.45 L 604.3 260.45 M 545.4 235.8 Q 540.7 210.6 568.85 160.45 M 642.35 102.6 Q 644.45 104.4 648.8 113.9" fill="none" stroke-width="5" stroke-linejoin="round" stroke-linecap="round" stroke="#000000"/>
			<path d="M 562.1 130.1 Q 575.65 127.45 574.15 118.35 L 555.7 113.1 Q 552.65 125.9 560.15 129.4 Q 561.05 129.8 562.1 130.1 Q 578.7 134.95 582.45 119.5 L 555.7 113.1 Q 550.15 125.2 560.15 129.4 M 636.45 112.9 Q 642.5 126.15 630.05 129.9 Q 613.4 134.75 609.65 119.3 L 629.4 114.6 Z M 629.4 114.6 Q 636.25 125.2 624.35 130.1 Q 614.7 133 609.65 119.3 M 606.3 132.5 L 606.3 155.35 L 587.25 155.35 L 587.25 132.5 Z" fill="none" stroke-width="3" stroke-linejoin="round" stroke-linecap="round" stroke="#000000"/>
	</g>
	</g>
</svg>
