<?xml version="1.0"?>
<!DOCTYPE svg PUBLIC "-//W3C//DTD SVG 1.1//EN" "http://www.w3.org/Graphics/SVG/1.1/DTD/svg11.dtd">
<svg version='1.1' width='166px' height='253px' xmlns='http://www.w3.org/2000/svg' xmlns:xlink='http://www.w3.org/1999/xlink'>
	<g transform="translate(2.48344,2.48048)">
		<path d="M 137.8 30.65 Q 136.2 32.6 133.75 34.5 L 136.15 41.65 Q 137.35 44.9 139 51.8 Q 139.5 54.3 139.6 56.25 Q 140.4 65.9 130.25 72 Q 122.5 76.75 110.2 78.65 Q 118.35 79.65 125.2 87.5 Q 128.55 91.5 133.65 99.6 Q 139.95 109.6 142.25 112.7 L 150.55 123.5 Q 156.1 130.85 158.35 136.05 Q 164.9 151.15 148 156.25 Q 138.8 159.05 130.6 153.95 Q 128.85 160.3 124.95 165.4 Q 128.05 175.5 129.45 190.05 L 131.05 208.15 Q 131.9 218.8 133.1 225.3 L 134.4 231.05 Q 135.2 234.5 135.2 236.65 Q 135.2 242.95 129.15 245.75 Q 125.05 247.7 114.55 247.3 L 99.3 246.45 Q 89.75 246.4 86.05 243.65 Q 82.95 241.35 83.45 236.55 Q 83.7 234 86.05 226.6 Q 88.35 219.3 88.65 215.1 Q 89.3 205.65 89.1 192.35 L 88.9 180.6 L 73.8 180.6 L 73.6 190.95 Q 73.3 204.25 74 213.7 Q 74.3 217.9 76.6 225.2 Q 79 232.6 79.2 235.2 Q 79.7 239.95 76.55 242.25 Q 72.95 245 63.45 245.05 L 48.15 245.9 Q 37.7 246.3 33.6 244.4 Q 27.5 241.55 27.55 235.25 Q 27.55 233.1 28.35 229.65 L 29.65 223.9 Q 30.85 217.4 31.7 206.85 L 33.3 188.65 Q 34.35 177.75 36.35 169.35 Q 31.6 163.9 30.1 155.95 Q 21.7 161.45 12.15 158.55 Q -4.7 153.45 1.85 138.35 Q 4.1 133.25 9.65 125.8 L 17.95 115 Q 20.25 111.85 26.55 101.9 Q 31.65 93.8 35 89.8 Q 43.3 80.35 53.55 80.9 Q 54.25 79.55 55.05 78.25 Q 54 78.1 53 77.95 Q 45.2 76.85 39.15 74.7 Q 34.9 73.15 31.45 71.1 Q 21.4 64.95 22.1 55.3 Q 22.25 52.95 22.75 50.5 Q 23.55 46.6 24.8 42.85 Q 16.35 36.4 15.2 24.6 Q 14.55 18.75 16.2 14.15 Q 18.1 8.7 22.7 4.05 Q 27.25 -0.55 39 0.1 Q 49.15 0.7 59 8.25 L 61.05 6.95 Q 64 5.5 67.75 4.45 Q 74.05 2.65 81.55 2.4 Q 82.2 2.35 82.85 2.35 Q 90.95 2.2 98.15 3.8 Q 104 5.1 108.1 7.4 Q 110.1 0.75 120.3 1.05 Q 124.4 1.2 128.35 2.5 Q 132.35 3.8 135.2 6.6 Q 140.6 12.2 140.65 20.5 Q 140.65 26.45 137.8 30.65 Z M 133.75 34.5 L 132.9 32 Q 130.7 26.05 127.45 23.35 Q 130.7 26.05 132.9 32 Z M 114.4 35.3 L 94.7 40.05 Q 98.45 55.45 115 50.55 Q 127.45 46.85 121.4 33.65 Z M 110.25 8.7 Q 109.45 8.2 108.65 7.65 Q 108.35 7.45 108.1 7.4 Q 108.35 7.45 108.65 7.65 Q 109.45 8.2 110.25 8.7 Z M 117.1 58.5 Q 120.4 59.8 125 59.8 Q 129.5 59.8 132.85 58.5 Q 136.05 57.2 136.05 55.4 Q 136.05 53.6 132.85 52.3 Q 129.6 51 125 51 Q 120.3 51 117.1 52.3 Q 113.85 53.6 113.85 55.4 Q 113.85 57.2 117.1 58.5 Z M 85.2 61.75 Q 85.2 61.95 85.2 62.1 Q 86.15 64.8 88.5 65.45 Q 90.8 66.1 93 65.1 Q 95.3 64.05 96.3 62.5 Q 96.4 62.35 96.45 62.25 Q 97.25 60.7 96.15 59.45 Q 97.25 60.7 96.45 62.25 Q 96.4 62.35 96.3 62.5 Q 95.3 64.05 93 65.1 Q 90.8 66.1 88.5 65.45 Q 86.15 64.8 85.2 62.1 Q 85.2 61.95 85.2 61.75 Z M 85.2 62.1 Q 85.05 64.3 82.7 65.55 Q 80.4 66.75 77.45 66.5 Q 74.35 66.1 73.2 64.3 Q 71.85 62.25 73.9 59.05 Q 71.85 62.25 73.2 64.3 Q 74.35 66.1 77.45 66.5 Q 80.4 66.75 82.7 65.55 Q 85.05 64.3 85.2 62.1 Z M 110.2 78.65 Q 109.45 78.75 108.75 78.85 L 107.8 79 Q 137.85 127.4 130.6 153.95 Q 137.85 127.4 107.8 79 L 108.75 78.85 Q 109.45 78.75 110.2 78.65 Z M 107.8 79 L 83.85 81.95 Q 74 80.8 55.05 78.25 Q 74 80.8 83.85 81.95 Z M 59 8.25 L 56.95 9.45 Q 56.5 9.85 56.05 10.2 Q 56.5 9.85 56.95 9.45 Z M 40.8 33.8 Q 35.2 46.05 45.5 50.2 Q 46.3 50.5 47.25 50.8 Q 63.75 55.7 67.5 40.2 Z M 34.3 22.45 Q 31.1 25.1 28.75 31.05 L 24.8 42.85 L 28.75 31.05 Q 31.1 25.1 34.3 22.45 Z M 36.5 59.5 Q 41.1 59.5 44.35 58.2 Q 47.6 56.9 47.6 55.1 Q 47.6 53.3 44.35 52 Q 41.1 50.7 36.5 50.7 Q 31.9 50.7 28.65 52 Q 25.45 53.3 25.45 55.1 Q 25.45 56.9 28.65 58.2 Q 31.9 59.5 36.5 59.5 Z M 73.8 180.6 L 61.1 180.6 Q 44.2 178.4 36.35 169.35 Q 44.2 178.4 61.1 180.6 Z M 124.95 165.4 Q 117.3 175.45 101.3 180.6 L 88.9 180.6 L 101.3 180.6 Q 117.3 175.45 124.95 165.4 Z M 30.1 155.95 Q 25.45 130.85 53.55 80.9 Q 25.45 130.85 30.1 155.95 Z" fill="#CE6B2B"/>
		<path d="M 114.4 35.3 Q 121.2 45.9 109.4 50.8 Q 99.75 53.8 94.7 40.05 Z M 45.5 50.2 Q 37.75 46.75 40.8 33.8 L 59.25 39.15 Q 60.75 48.15 47.25 50.8 Q 46.3 50.5 45.5 50.2 Z" fill="#000000"/>
		<path d="M 94.7 40.05 Q 99.75 53.8 109.4 50.8 Q 121.2 45.9 114.4 35.3 L 121.4 33.65 Q 127.45 46.85 115 50.55 Q 98.45 55.45 94.7 40.05 Z M 47.25 50.8 Q 60.75 48.15 59.25 39.15 L 40.8 33.8 L 67.5 40.2 Q 63.75 55.7 47.25 50.8 Z M 45.5 50.2 Q 35.2 46.05 40.8 33.8 Q 37.75 46.75 45.5 50.2 Z" fill="#FFFFFF"/>
		<path d="M 117.1 58.5 Q 113.85 57.2 113.85 55.4 Q 113.85 53.6 117.1 52.3 Q 120.3 51 125 51 Q 129.6 51 132.85 52.3 Q 136.05 53.6 136.05 55.4 Q 136.05 57.2 132.85 58.5 Q 129.5 59.8 125 59.8 Q 120.4 59.8 117.1 58.5 Z M 36.5 59.5 Q 31.9 59.5 28.65 58.2 Q 25.45 56.9 25.45 55.1 Q 25.45 53.3 28.65 52 Q 31.9 50.7 36.5 50.7 Q 41.1 50.7 44.35 52 Q 47.6 53.3 47.6 55.1 Q 47.6 56.9 44.35 58.2 Q 41.1 59.5 36.5 59.5 Z" fill="#FFDBFF"/>
		<path d="M 137.8 30.65 Q 136.2 32.6 133.75 34.5 L 136.15 41.65 Q 137.35 44.9 139 51.8 Q 139.5 54.3 139.6 56.25 Q 140.4 65.9 130.25 72 Q 122.5 76.75 110.2 78.65 Q 118.35 79.65 125.2 87.5 Q 128.55 91.5 133.65 99.6 Q 139.95 109.6 142.25 112.7 L 150.55 123.5 Q 156.1 130.85 158.35 136.05 Q 164.9 151.15 148 156.25 Q 138.8 159.05 130.6 153.95 Q 128.85 160.3 124.95 165.4 Q 128.05 175.5 129.45 190.05 L 131.05 208.15 Q 131.9 218.8 133.1 225.3 L 134.4 231.05 Q 135.2 234.5 135.2 236.65 Q 135.2 242.95 129.15 245.75 Q 125.05 247.7 114.55 247.3 L 99.3 246.45 Q 89.75 246.4 86.05 243.65 Q 82.95 241.35 83.45 236.55 Q 83.7 234 86.05 226.6 Q 88.35 219.3 88.65 215.1 Q 89.3 205.65 89.1 192.35 L 88.9 180.6 L 73.8 180.6 L 73.6 190.95 Q 73.3 204.25 74 213.7 Q 74.3 217.9 76.6 225.2 Q 79 232.6 79.2 235.2 Q 79.7 239.95 76.55 242.25 Q 72.95 245 63.45 245.05 L 48.15 245.9 Q 37.7 246.3 33.6 244.4 Q 27.5 241.55 27.55 235.25 Q 27.55 233.1 28.35 229.65 L 29.65 223.9 Q 30.85 217.4 31.7 206.85 L 33.3 188.65 Q 34.35 177.75 36.35 169.35 Q 31.6 163.9 30.1 155.95 Q 21.7 161.45 12.15 158.55 Q -4.7 153.45 1.85 138.35 Q 4.1 133.25 9.65 125.8 L 17.95 115 Q 20.25 111.85 26.55 101.9 Q 31.65 93.8 35 89.8 Q 43.3 80.35 53.55 80.9 Q 54.25 79.55 55.05 78.25 Q 54 78.1 53 77.95 Q 45.2 76.85 39.15 74.7 Q 34.9 73.15 31.45 71.1 Q 21.4 64.95 22.1 55.3 Q 22.25 52.95 22.75 50.5 Q 23.55 46.6 24.8 42.85 Q 16.35 36.4 15.2 24.6 Q 14.55 18.75 16.2 14.15 Q 18.1 8.7 22.7 4.05 Q 27.25 -0.55 39 0.1 Q 49.15 0.7 59 8.25 L 61.05 6.95 Q 64 5.5 67.75 4.45 Q 74.05 2.65 81.55 2.4 Q 82.2 2.35 82.85 2.35 Q 90.95 2.2 98.15 3.8 Q 104 5.1 108.1 7.4 Q 110.1 0.75 120.3 1.05 Q 124.4 1.2 128.35 2.5 Q 132.35 3.8 135.2 6.6 Q 140.6 12.2 140.65 20.5 Q 140.65 26.45 137.8 30.65 Z M 133.75 34.5 L 132.9 32 Q 130.7 26.05 127.45 23.35 M 110.25 8.7 Q 109.45 8.2 108.65 7.65 Q 108.35 7.45 108.1 7.4 M 110.2 78.65 Q 109.45 78.75 108.75 78.85 L 107.8 79 Q 137.85 127.4 130.6 153.95 M 107.8 79 L 83.85 81.95 Q 74 80.8 55.05 78.25 M 59 8.25 L 56.95 9.45 Q 56.5 9.85 56.05 10.2 M 34.3 22.45 Q 31.1 25.1 28.75 31.05 L 24.8 42.85 M 73.8 180.6 L 61.1 180.6 Q 44.2 178.4 36.35 169.35 M 124.95 165.4 Q 117.3 175.45 101.3 180.6 L 88.9 180.6 M 30.1 155.95 Q 25.45 130.85 53.55 80.9" fill="none" stroke-width="5" stroke-linejoin="round" stroke-linecap="round" stroke="#000000"/>
		<path d="M 114.4 35.3 L 121.4 33.65 Q 127.45 46.85 115 50.55 Q 98.45 55.45 94.7 40.05 Z M 85.2 61.75 Q 85.2 61.95 85.2 62.1 Q 86.15 64.8 88.5 65.45 Q 90.8 66.1 93 65.1 Q 95.3 64.05 96.3 62.5 Q 96.4 62.35 96.45 62.25 Q 97.25 60.7 96.15 59.45 M 85.2 62.1 Q 85.05 64.3 82.7 65.55 Q 80.4 66.75 77.45 66.5 Q 74.35 66.1 73.2 64.3 Q 71.85 62.25 73.9 59.05 M 47.25 50.8 Q 63.75 55.7 67.5 40.2 L 40.8 33.8 Q 35.2 46.05 45.5 50.2" fill="none" stroke-width="3" stroke-linejoin="round" stroke-linecap="round" stroke="#000000"/>
		<path d="M 114.4 35.3 Q 121.2 45.9 109.4 50.8 Q 99.75 53.8 94.7 40.05 M 40.8 33.8 L 59.25 39.15 Q 60.75 48.15 47.25 50.8 M 45.5 50.2 Q 46.3 50.5 47.25 50.8 M 45.5 50.2 Q 37.75 46.75 40.8 33.8" fill="none" stroke-width="2" stroke-linejoin="round" stroke-linecap="round" stroke="#000000"/>
	</g>
</svg>
