<?xml version="1.0"?>
<!DOCTYPE svg PUBLIC "-//W3C//DTD SVG 1.1//EN" "http://www.w3.org/Graphics/SVG/1.1/DTD/svg11.dtd">
<svg version='1.1' width='108px' height='100px' xmlns='http://www.w3.org/2000/svg' xmlns:xlink='http://www.w3.org/1999/xlink'>
	<g transform="translate(0.5,0.5)">
		<path d="M 55.35 72.2 L 55.35 68.75 Q 76.0482 68.901 90.9 71.9 Q 105.619 74.8721 106.45 79 Q 106.5 79.2486 106.5 79.5 Q 106.5 79.7488 106.45 80 Q 106.373 80.376 106.175 80.75 Q 106.041 80.9998 105.85 81.25 Q 103.35 84.6 90.9 87.1 Q 75.3 90.25 53.25 90.25 Q 31.2 90.25 15.6 87.1 Q 3.15 84.6 0.65 81.25 Q 0.458594 80.9998 0.325 80.75 Q 0.0203125 80.1734 0 79.575 L 0 79.45 Q 0.0820313 75.0334 15.6 71.9 Q 30.1641 68.9592 50.35 68.775 L 50.35 72.225 Q 35.6145 72.408 24.95 74.55 Q 13.25 76.9 13.25 80.2 Q 13.25 80.9 13.7 81.5 Q 15.6 84 24.95 85.9 Q 36.65 88.25 53.25 88.25 Q 69.8 88.25 81.5 85.9 Q 90.85 84 92.75 81.5 Q 93.25 80.9 93.25 80.2 Q 93.25 76.9 81.5 74.55 Q 70.5494 72.3506 55.35 72.2 Z" fill="#33CCFF"/>
		<path d="M 50.35 68.775 L 50.35 64 L 13.25 64 L 13.25 0 L 93.25 0 L 93.25 64 L 55.35 64 L 55.35 68.75 L 55.35 72.2 Q 70.5494 72.3506 81.5 74.55 Q 93.25 76.9 93.25 80.2 Q 93.25 80.9 92.75 81.5 Q 90.85 84 81.5 85.9 Q 69.8 88.25 53.25 88.25 Q 36.65 88.25 24.95 85.9 Q 15.6 84 13.7 81.5 Q 13.25 80.9 13.25 80.2 Q 13.25 76.9 24.95 74.55 Q 35.6145 72.408 50.35 72.225 Z M 55.35 64 L 50.35 64 Z M 55.35 79.475 L 55.35 81.85 Q 53.05 83.3 50.35 81.85 L 50.35 79.5 L 50.35 81.85 Q 53.05 83.3 55.35 81.85 Z M 50.35 77.225 L 50.35 72.225 L 50.35 77.225 Q 41.8553 77.4074 35.6 78.65 Q 28.25 80.1 28.25 82.2 Q 28.25 82.6 28.55 83 Q 29.75 84.6 35.6 85.75 Q 42.9 87.25 53.25 87.25 Q 63.6 87.25 70.95 85.75 Q 76.8 84.6 77.95 83 Q 78.25 82.6 78.25 82.2 Q 78.25 80.1 70.95 78.65 Q 64.357 77.3494 55.35 77.225 L 55.35 79.475 Q 60.2227 79.5977 63.9 80.3 Q 68.25 81.2 68.25 82.4 Q 68.25 82.7 68.1 82.9 Q 67.35 83.8 63.9 84.55 Q 59.45 85.45 53.25 85.45 Q 47 85.45 42.65 84.55 Q 39.15 83.8 38.4 82.9 Q 38.25 82.7 38.25 82.4 Q 38.25 81.2 42.65 80.3 Q 45.9525 79.6547 50.35 79.5 L 50.35 77.225 L 50.35 79.5 Q 45.9525 79.6547 42.65 80.3 Q 38.25 81.2 38.25 82.4 Q 38.25 82.7 38.4 82.9 Q 39.15 83.8 42.65 84.55 Q 47 85.45 53.25 85.45 Q 59.45 85.45 63.9 84.55 Q 67.35 83.8 68.1 82.9 Q 68.25 82.7 68.25 82.4 Q 68.25 81.2 63.9 80.3 Q 60.2227 79.5977 55.35 79.475 L 55.35 77.225 Q 64.357 77.3494 70.95 78.65 Q 78.25 80.1 78.25 82.2 Q 78.25 82.6 77.95 83 Q 76.8 84.6 70.95 85.75 Q 63.6 87.25 53.25 87.25 Q 42.9 87.25 35.6 85.75 Q 29.75 84.6 28.55 83 Q 28.25 82.6 28.25 82.2 Q 28.25 80.1 35.6 78.65 Q 41.8553 77.4074 50.35 77.225 Z M 55.35 72.2 L 55.35 77.225 Z M 82.45 91 Q 69.6328 92.75 53.25 92.75 Q 36.8699 92.75 24.05 91 Q 23.6484 90.9467 23.25 90.9 Q 19.2484 90.3367 15.6 89.6 Q 3.15 87.1 0.65 83.75 Q 0.0203125 82.9266 0 82.05 L 0 81.925 Q 0.0203125 81.3209 0.325 80.75 Q 0.458594 80.9998 0.65 81.25 Q 3.15 84.6 15.6 87.1 Q 31.2 90.25 53.25 90.25 Q 75.3 90.25 90.9 87.1 Q 103.35 84.6 105.85 81.25 Q 106.041 80.9998 106.175 80.75 Q 106.373 81.1209 106.45 81.5 Q 106.5 81.7494 106.5 82 Q 106.5 82.249 106.45 82.5 Q 106.32 83.1354 105.85 83.75 Q 103.35 87.1 90.9 89.6 Q 87.2533 90.3363 83.25 90.9 L 83.25 90.55 L 83.25 90.9 Q 82.852 90.9465 82.45 91 Q 83.2309 91.6795 83.25 92.425 L 83.25 92.475 Q 83.2391 92.9641 82.9 93.4 Q 81.5 95.35 74.5 96.7 Q 65.65 98.5 53.25 98.5 Q 40.85 98.5 32.05 96.7 Q 25.05 95.35 23.6 93.4 Q 23.2609 92.9641 23.25 92.475 L 23.25 92.425 Q 23.2691 91.6799 24.05 91 Q 36.8699 92.75 53.25 92.75 Q 69.6328 92.75 82.45 91 Z M 106.45 81.5 L 106.45 82.5 Z" fill="#FFFFFF"/>
		<path d="M 50.35 72.225 L 50.35 68.775 Q 30.1641 68.9592 15.6 71.9 Q 0.0820313 75.0334 0 79.45 L 0 79.575 M 106.45 80 Q 106.5 79.7488 106.5 79.5 Q 106.5 79.2486 106.45 79 Q 105.619 74.8721 90.9 71.9 Q 76.0482 68.901 55.35 68.75 L 55.35 72.2 L 55.35 77.225 L 55.35 79.475 Q 60.2227 79.5977 63.9 80.3 Q 68.25 81.2 68.25 82.4 Q 68.25 82.7 68.1 82.9 Q 67.35 83.8 63.9 84.55 Q 59.45 85.45 53.25 85.45 Q 47 85.45 42.65 84.55 Q 39.15 83.8 38.4 82.9 Q 38.25 82.7 38.25 82.4 Q 38.25 81.2 42.65 80.3 Q 45.9525 79.6547 50.35 79.5 L 50.35 77.225 L 50.35 72.225 M 83.25 90.9 Q 82.852 90.9465 82.45 91 Q 69.6328 92.75 53.25 92.75 Q 36.8699 92.75 24.05 91 Q 23.6484 90.9467 23.25 90.9 M 83.25 92.425 L 83.25 90.9 M 106.45 82.5 Q 106.32 83.1354 105.85 83.75 Q 103.35 87.1 90.9 89.6 Q 87.2533 90.3363 83.25 90.9 M 83.25 92.425 L 83.25 92.475 Q 83.2391 92.9641 82.9 93.4 Q 81.5 95.35 74.5 96.7 Q 65.65 98.5 53.25 98.5 Q 40.85 98.5 32.05 96.7 Q 25.05 95.35 23.6 93.4 Q 23.2609 92.9641 23.25 92.475 L 23.25 92.425 L 23.25 90.9 Q 19.2484 90.3367 15.6 89.6 Q 3.15 87.1 0.65 83.75 Q 0.0203125 82.9266 0 82.05 L 0 81.925 L 0 79.575 M 83.25 90.55 L 83.25 90.9 M 106.45 81.5 L 106.45 82.5 M 106.45 80 L 106.45 81.5 M 50.35 68.775 L 50.35 64 L 13.25 64 L 13.25 0 L 93.25 0 L 93.25 64 L 55.35 64 L 55.35 68.75 M 55.35 64 L 50.35 64 M 55.35 79.475 L 55.35 81.85 Q 53.05 83.3 50.35 81.85 L 50.35 79.5" fill="none" stroke-width="1" stroke-linejoin="round" stroke="#000000"/>
		<path d="M 0.325 80.75 Q 0.458594 80.9998 0.65 81.25 Q 3.15 84.6 15.6 87.1 Q 31.2 90.25 53.25 90.25 Q 75.3 90.25 90.9 87.1 Q 103.35 84.6 105.85 81.25 Q 106.041 80.9998 106.175 80.75" fill="none" stroke-width="0.5" stroke-linejoin="round" stroke="#000000"/>
		<path d="M 50.35 77.225 Q 41.8553 77.4074 35.6 78.65 Q 28.25 80.1 28.25 82.2 Q 28.25 82.6 28.55 83 Q 29.75 84.6 35.6 85.75 Q 42.9 87.25 53.25 87.25 Q 63.6 87.25 70.95 85.75 Q 76.8 84.6 77.95 83 Q 78.25 82.6 78.25 82.2 Q 78.25 80.1 70.95 78.65 Q 64.357 77.3494 55.35 77.225" fill="none" stroke-width="0.5" stroke-linejoin="round" stroke="#666666"/>
	</g>
</svg>
