<svg width="71" height="71" xmlns="http://www.w3.org/2000/svg"><path d="M55.35 14.75Q46.9 6.3 35.05 6.3q-11.9 0-20.3 8.45Q6.3 23.2 6.3 35.05q0 11.9 8.45 20.3 8.4 8.45 20.3 8.45 11.85 0 20.3-8.45 8.45-8.4 8.45-20.3 0-11.85-8.45-20.3zm13.75 20.3q0 14.05-10 24.05t-24.05 10Q21 69.1 11 59.1T1 35.05Q1 21 11 11T35.05 1Q49.1 1 59.1 11t10 24.05z" fill="red"/><path d="M69.1 35.05q0 14.05-10 24.05t-24.05 10Q21 69.1 11 59.1T1 35.05Q1 21 11 11T35.05 1Q49.1 1 59.1 11t10 24.05z" fill="none" stroke-width="2" stroke-linejoin="round" stroke="#FFF"/></svg>