<svg width="70" height="70" xmlns="http://www.w3.org/2000/svg"><path d="M66.462 35q0 12.982-9.24 22.222-9.24 9.24-22.222 9.24-12.982 0-22.222-9.24-9.24-9.24-9.24-22.222 0-12.982 9.24-22.222 9.24-9.24 22.222-9.24 12.982 0 22.222 9.24 9.24 9.24 9.24 22.222z" fill="none" stroke-width="1.997" stroke-linejoin="round" stroke="#fff" style="stroke-width:7.07672;stroke-dasharray:none"/><path d="M66.586 35q0 13.033-9.276 22.31-9.277 9.276-22.31 9.276T12.69 57.31Q3.414 48.033 3.414 35t9.276-22.31Q21.967 3.414 35 3.414t22.31 9.276q9.276 9.277 9.276 22.31z" fill="none" stroke-width="1.997" stroke-linejoin="round" stroke="#fff" style="stroke:red;stroke-width:3.82839;stroke-dasharray:none;stroke-opacity:1"/></svg>