<svg width="246" height="251" xmlns="http://www.w3.org/2000/svg"><path d="M167.865 105.849q-4.25-9.1-10.25-19.25 5.55-6.3 14.8-6.7 14.35-.65 30.3-.2 8.05-.65 18.6-1.1 2.4-.1 14.05 2 1.75.7 3.3 1.6 6.75 4 3.3 16.75-4.5 12.75-17.1 15.1-12.55 2.45-26.8-.3-5.7-.85-16.7-3.4-7.25-1.75-13.5-4.5zm-145.7-25.25 5.35 9.35-3.25 1.25q2.15.3 4.1.25 5.05-.25 8.85-3.15 1.7-1.35 3.2-3.3l-4.2 1.6-4.55-7.95q2.15-.15 4.55-.05 10.5.45 18.55 1.1 1.5-.05 2.95-.05 14.4-.35 27.35.25 8.35.35 13.75 5.55-6.2 11.15-10.65 21.05-5.65 2.3-12.05 3.85-11 2.55-16.7 3.35-.85.15-1.7.35-13.3 2.3-25.1 0-12.5-2.35-17.1-15.1-3.45-12.75 3.35-16.75 1.55-.9 3.3-1.6z" fill="#CE6826"/><path d="M88.165 106.499q4.45-9.9 10.65-21.05 1.45-2.75 3.1-5.5-1.1-.2-2.2-.35-11.95-1.45-21.55-6.8-4.25-2.4-6.55-5.7-2.95-4.25-2.8-10.05.65-6.35 2.7-12.55v-.05l-.15-.1-3.5-4.5q-3.6-5.5-4.95-12.25-1.95-10.15 5.1-18.6 7.4-7.3 18.2-6.4 10.5.7 19.6 7.45 9.3-5.65 23.9-5.9 15.15-.25 25.25 5.05 3-6.9 12.15-6.35 9.15.6 14.1 4.7 1.7 1.7 3 3.75 3.2 4.9 3.25 11 .05 8.55-6.9 14.1 1.2 3.7 2.3 6.95 2.65 7.2 3.4 14.6.25 10.45-9.35 15.75-9.6 5.4-21.55 6.85-.6.1-1.3.2 1.85 2.95 3.55 5.85 6 10.15 10.25 19.25 18.95 40.6 3.55 61.05 3.05 10 4.45 24.5l1.55 18.05q.9 10.6 2.1 17.05l1.3 5.75q.75 3.4.75 5.55 0 6.25-6 9.05-4.05 1.9-14.5 1.55l-15.2-.85q-9.5-.05-13.15-2.8-3.1-2.3-2.6-7.1.2-2.5 2.6-9.85 2.25-7.25 2.55-11.45.65-9.4.45-22.65l-.2-11.6h-14.95l-.2 10.3q-.3 13.25.45 22.65.25 4.2 2.55 11.45 2.35 7.35 2.6 9.95.5 4.7-2.65 7-3.6 2.75-13.05 2.8l-15.25.85q-10.4.35-14.45-1.5-6.1-2.85-6-9.1 0-2.15.75-5.55l1.3-5.75q1.2-6.45 2.1-16.95l1.55-18.15q1.05-10.75 3-19.05-16.1-18.2 4.9-64.55zm68.35-95.8-1.55-1.5 1.55 1.5-3.7.1.55.55 3.75-.15-.35-.35-.15-.15zm-15.95 38.4q.1-.5.15-1 .3-1.7.85-3.15.75-1.45 1.75-2.8 1.15-1.6 2.65-3.2 4.7-4.65 15.2-3.45 6.25 1.25 8.55 5 2.35 3.7.25 7.05-.4-7.35-7.4-9.6-7.05-2.2-14.15.6-3.15 1.3-5.1 3.6 1.95-2.3 5.1-3.6 7.1-2.8 14.15-.6 7 2.25 7.4 9.6 2.1-3.35-.25-7.05-2.3-3.75-8.55-5-10.5-1.2-15.2 3.45-1.5 1.6-2.65 3.2-1 1.35-1.75 2.8-.55 1.45-.85 3.15-.05.5-.15 1zm31.2 12.45q10.15-.35 11.1-4.4-.95-4-11.1-4.35-10.1.35-11.05 4.35.95 4.05 11.05 4.4zm-54.7-4.1q-1.65 3.95-.8 11.85.75 7.15 3.6 13.1-9.15-1.2-17.95-2.45 8.8 1.25 17.95 2.45.25.55.55 1.15 3.35 6.4 8.95 5.85 3.5-1.05 6-6.3 13.05-1.6 18.7-2.35-5.65.75-18.7 2.35.45-1 .9-2.15 2.65-7.15 3.95-15.2 1.2-8 1.1-11.8-5.8 2.8-13.1 3.65-7.35.95-12.4-2.6zm63.5-21.05q-4.05-9.1-6.5-11.3 2.45 2.2 6.5 11.3zm-45.05 145.7h12.3q15.95-5.15 23.6-15.2-7.65 10.05-23.6 15.2zm-32.25-169.95q1-1.2 2.55-2.1-1.55.9-2.55 2.1v.55l3.6-.05q.1-.35.4-.55zm-31.75 32.3 3.95-11.65q1.8-5.25 5.5-8.65-3.7 3.4-5.5 8.65zm12.9-17.5v.5q.05-.2.2-.4-.15 0-.2-.1zm31.5 23.15q-.1-.5-.15-1-.35-2.45-1.45-4.3-.3-.5-.65-1.1-2-2.7-5.6-4.15-7.1-2.8-14.15-.6-7 2.2-7.45 9.6-2-3.3.3-7.05 2.4-3.75 8.55-4.95 10.6-1.25 15.2 3.45 1.85 1.85 3.15 3.7-1.3-1.85-3.15-3.7-4.6-4.7-15.2-3.45-6.15 1.2-8.55 4.95-2.3 3.75-.3 7.05.45-7.4 7.45-9.6 7.05-2.2 14.15.6 3.6 1.45 5.6 4.15.35.6.65 1.1 1.1 1.85 1.45 4.3.05.5.15 1zm-21.5 6.8q-.95-4.05-11.1-4.4-10.15.35-11.05 4.4.9 4 11.05 4.35 10.15-.35 11.1-4.35zm-11.15 114.15q7.85 8.85 24.5 11.05h12.8-12.8q-16.65-2.2-24.5-11.05z" fill="#CE6B2B"/><path d="m156.765 10.849-.25-.15h.1l.15.15.35.35-3.75.15-.55-.55 3.7-.1zm-53.5 1.3 4-.05q-.3.2-.4.55l-3.6.05zm-18.85 14.8q.05.1.2.1-.15.2-.2.4z" fill="#43A837"/><path d="M171.765 61.549q-10.1-.35-11.05-4.4.95-4 11.05-4.35 10.15.35 11.1 4.35-.95 4.05-11.1 4.4zm-77.35-4.65q-.95 4-11.1 4.35-10.15-.35-11.05-4.35.9-4.05 11.05-4.4 10.15.35 11.1 4.4z" fill="#FDDBED"/><path d="M119.865 82.399q-2.85-5.95-3.6-13.1-.85-7.9.8-11.85l-1.25-2.45q5.05 3.55 12.4 2.6 7.3-.85 13.1-3.65.1 3.8-1.1 11.8-1.3 8.05-3.95 15.2-.45 1.15-.9 2.15-2.5 5.25-6 6.3-5.6.55-8.95-5.85-.3-.6-.55-1.15z" fill="#FEE6F2"/><path d="M40.415 84.999q-1.5 1.95-3.2 3.3-3.8 2.9-8.85 3.15-1.95.05-4.1-.25l3.25-1.25 8.7-3.35z" fill="#0572B1"/><path d="m27.515 89.949-5.35-9.35-4.375-7.6 8.475-3.7 5.4 9.35 4.55 7.95z" fill="#F90"/><path d="M14.54 74.399q-5.675-18.21-1.575-38.375l18.25 31.125-4.95 2.15-8.475 3.7z" fill="#666"/><path d="M12.965 36.024q-4.1 20.165 1.575 38.375l-6.325 2.75q-10.002-25.875-2.5-53.5z" fill="#FFF"/><path d="m22.165 80.599-4.375-7.6m8.475-3.7 5.4 9.35m4.55 7.95-4.55-7.95m-9.5 1.95 5.35 9.35" fill="none" stroke-width="4" stroke-linejoin="round" stroke-linecap="round" stroke="#000"/><path d="M202.715 79.699q8.05-.65 18.6-1.1 2.4-.1 14.05 2 1.75.7 3.3 1.6 6.75 4 3.3 16.75m-226.45 0q-3.45-12.75 3.35-16.75 1.55-.9 3.3-1.6m-4.375-7.6-3.25 1.4-6.325 2.75q-10.002-25.875-2.5-53.5l7.25 12.375 18.25 31.125-4.95 2.15m5.4 9.35q2.15-.15 4.55-.05 10.5.45 18.55 1.1m80.6 3.4q13.05-1.6 18.7-2.35m-34.2 1.65q-9.15-1.2-17.95-2.45m-84.125-6.95 8.475-3.7" fill="none" stroke-width="5" stroke-linejoin="round" stroke="#000"/><path d="M241.965 98.949q-4.5 12.75-17.1 15.1-12.55 2.45-26.8-.3-5.7-.85-16.7-3.4-7.25-1.75-13.5-4.5 18.95 40.6 3.55 61.05 3.05 10 4.45 24.5l1.55 18.05q.9 10.6 2.1 17.05l1.3 5.75q.75 3.4.75 5.55 0 6.25-6 9.05-4.05 1.9-14.5 1.55l-15.2-.85q-9.5-.05-13.15-2.8-3.1-2.3-2.6-7.1.2-2.5 2.6-9.85 2.25-7.25 2.55-11.45.65-9.4.45-22.65l-.2-11.6h-14.95l-.2 10.3q-.3 13.25.45 22.65.25 4.2 2.55 11.45 2.35 7.35 2.6 9.95.5 4.7-2.65 7-3.6 2.75-13.05 2.8l-15.25.85q-10.4.35-14.45-1.5-6.1-2.85-6-9.1 0-2.15.75-5.55l1.3-5.75q1.2-6.45 2.1-16.95l1.55-18.15q1.05-10.75 3-19.05-16.1-18.2 4.9-64.55-5.65 2.3-12.05 3.85-11 2.55-16.7 3.35-.85.15-1.7.35-13.3 2.3-25.1 0-12.5-2.35-17.1-15.1m39.25-19.25q1.5-.05 2.95-.05 14.4-.35 27.35.25 8.35.35 13.75 5.55 1.45-2.75 3.1-5.5-1.1-.2-2.2-.35-11.95-1.45-21.55-6.8-4.25-2.4-6.55-5.7-2.95-4.25-2.8-10.05.65-6.35 2.7-12.55l-.15-.15-3.5-4.5q-3.6-5.5-4.95-12.25-1.95-10.15 5.1-18.6 7.4-7.3 18.2-6.4 10.5.7 19.6 7.45 9.3-5.65 23.9-5.9 15.15-.25 25.25 5.05 3-6.9 12.15-6.35 9.15.6 14.1 4.7 1.7 1.7 3 3.75 3.2 4.9 3.25 11 .05 8.55-6.9 14.1 1.2 3.7 2.3 6.95 2.65 7.2 3.4 14.6.25 10.45-9.35 15.75-9.6 5.4-21.55 6.85-.6.1-1.3.2 1.85 2.95 3.55 5.85 5.55-6.3 14.8-6.7 14.35-.65 30.3-.2m-46.2-69-1.55-1.5m1.8 1.65-.25-.15m24.05 25.7q-4.05-9.1-6.5-11.3m-38.55 157h12.3q15.95-5.15 23.6-15.2m-3.55-61.05q-4.25-9.1-10.25-19.25m-54.35-74.45q1-1.2 2.55-2.1m-34.3 34.4 3.95-11.65q1.8-5.25 5.5-8.65m-9.45 20.35v-.05m-47.25 46.75q2.15.3 4.1.25 5.05-.25 8.85-3.15 1.7-1.35 3.2-3.3m42.85 86.05q7.85 8.85 24.5 11.05h12.8m-21.75-96.65q-6.2 11.15-10.65 21.05" fill="none" stroke-width="5" stroke-linejoin="round" stroke-linecap="round" stroke="#000"/><path d="M140.565 49.099q.1-.5.15-1 .3-1.7.85-3.15.75-1.45 1.75-2.8 1.15-1.6 2.65-3.2 4.7-4.65 15.2-3.45 6.25 1.25 8.55 5 2.35 3.7.25 7.05-.4-7.35-7.4-9.6-7.05-2.2-14.15.6-3.15 1.3-5.1 3.6m-27.5 12.85q5.05 3.55 12.4 2.6 7.3-.85 13.1-3.65.1 3.8-1.1 11.8-1.3 8.05-3.95 15.2-.45 1.15-.9 2.15-2.5 5.25-6 6.3-5.6.55-8.95-5.85-.3-.6-.55-1.15-2.85-5.95-3.6-13.1-.85-7.9.8-11.85m-1.15-7.35q-.1-.5-.15-1-.35-2.45-1.45-4.3-.3-.5-.65-1.1-2-2.7-5.6-4.15-7.1-2.8-14.15-.6-7 2.2-7.45 9.6-2-3.3.3-7.05 2.4-3.75 8.55-4.95 10.6-1.25 15.2 3.45 1.85 1.85 3.15 3.7" fill="none" stroke-width="3" stroke-linejoin="round" stroke-linecap="round" stroke="#000"/><path d="M12.965 36.024q-4.1 20.165 1.575 38.375" fill="none" stroke-width="2" stroke-linejoin="round" stroke="#000"/></svg>