<?xml version="1.0"?>
<!DOCTYPE svg PUBLIC "-//W3C//DTD SVG 1.1//EN" "http://www.w3.org/Graphics/SVG/1.1/DTD/svg11.dtd">
<svg version='1.1' width='246px' height='251px' xmlns='http://www.w3.org/2000/svg' xmlns:xlink='http://www.w3.org/1999/xlink'>
	<g transform="translate(-26.1348,-11.4512)">
		<path d="M 194 117.3 Q 189.75 108.2 183.75 98.05 Q 189.3 91.75 198.55 91.35 Q 212.9 90.7 228.85 91.15 Q 236.9 90.5 247.45 90.05 Q 249.85 89.95 261.5 92.05 Q 263.25 92.75 264.8 93.65 Q 271.55 97.65 268.1 110.4 Q 263.6 123.15 251 125.5 Q 238.45 127.95 224.2 125.2 Q 218.5 124.35 207.5 121.8 Q 200.25 120.05 194 117.3 Z M 48.3 92.05 L 53.65 101.4 L 50.4 102.65 Q 52.55 102.95 54.5 102.9 Q 59.55 102.65 63.35 99.75 Q 65.05 98.4 66.55 96.45 L 62.35 98.05 L 57.8 90.1 Q 59.95 89.95 62.35 90.05 Q 72.85 90.5 80.9 91.15 Q 82.4 91.1 83.85 91.1 Q 98.25 90.75 111.2 91.35 Q 119.55 91.7 124.95 96.9 Q 118.75 108.05 114.3 117.95 Q 108.65 120.25 102.25 121.8 Q 91.25 124.35 85.55 125.15 Q 84.7 125.3 83.85 125.5 Q 70.55 127.8 58.75 125.5 Q 46.25 123.15 41.65 110.4 Q 38.2 97.65 45 93.65 Q 46.55 92.75 48.3 92.05 Z" fill="#CE6826"/>
		<path d="M 114.3 117.95 Q 118.75 108.05 124.95 96.9 Q 126.4 94.15 128.05 91.4 Q 126.95 91.2 125.85 91.05 Q 113.9 89.6 104.3 84.25 Q 100.05 81.85 97.75 78.55 Q 94.8 74.3 94.95 68.5 Q 95.6 62.15 97.65 55.95 L 97.65 55.9 L 97.5 55.8 L 94 51.3 Q 90.4 45.8 89.05 39.05 Q 87.1 28.9 94.15 20.45 Q 101.55 13.15 112.35 14.05 Q 122.85 14.75 131.95 21.5 Q 141.25 15.85 155.85 15.6 Q 171 15.35 181.1 20.65 Q 184.1 13.75 193.25 14.3 Q 202.4 14.9 207.35 19 Q 209.05 20.7 210.35 22.75 Q 213.55 27.65 213.6 33.75 Q 213.65 42.3 206.7 47.85 Q 207.9 51.55 209 54.8 Q 211.65 62 212.4 69.4 Q 212.65 79.85 203.05 85.15 Q 193.45 90.55 181.5 92 Q 180.9 92.1 180.2 92.2 Q 182.05 95.15 183.75 98.05 Q 189.75 108.2 194 117.3 Q 212.95 157.9 197.55 178.35 Q 200.6 188.35 202 202.85 L 203.55 220.9 Q 204.45 231.5 205.65 237.95 L 206.95 243.7 Q 207.7 247.1 207.7 249.25 Q 207.7 255.5 201.7 258.3 Q 197.65 260.2 187.2 259.85 L 172 259 Q 162.5 258.95 158.85 256.2 Q 155.75 253.9 156.25 249.1 Q 156.45 246.6 158.85 239.25 Q 161.1 232 161.4 227.8 Q 162.05 218.4 161.85 205.15 L 161.65 193.55 L 146.7 193.55 L 146.5 203.85 Q 146.2 217.1 146.95 226.5 Q 147.2 230.7 149.5 237.95 Q 151.85 245.3 152.1 247.9 Q 152.6 252.6 149.45 254.9 Q 145.85 257.65 136.4 257.7 L 121.15 258.55 Q 110.75 258.9 106.7 257.05 Q 100.6 254.2 100.7 247.95 Q 100.7 245.8 101.45 242.4 L 102.75 236.65 Q 103.95 230.2 104.85 219.7 L 106.4 201.55 Q 107.45 190.8 109.4 182.5 Q 93.3 164.3 114.3 117.95 Z M 182.65 22.15 L 181.1 20.65 L 182.65 22.15 L 178.95 22.25 Q 179.2 22.5 179.5 22.8 L 183.25 22.65 L 182.9 22.3 L 182.75 22.15 Z M 166.7 60.55 Q 166.8 60.05 166.85 59.55 Q 167.15 57.85 167.7 56.4 Q 168.45 54.95 169.45 53.6 Q 170.6 52 172.1 50.4 Q 176.8 45.75 187.3 46.95 Q 193.55 48.2 195.85 51.95 Q 198.2 55.65 196.1 59 Q 195.7 51.65 188.7 49.4 Q 181.65 47.2 174.55 50 Q 171.4 51.3 169.45 53.6 Q 171.4 51.3 174.55 50 Q 181.65 47.2 188.7 49.4 Q 195.7 51.65 196.1 59 Q 198.2 55.65 195.85 51.95 Q 193.55 48.2 187.3 46.95 Q 176.8 45.75 172.1 50.4 Q 170.6 52 169.45 53.6 Q 168.45 54.95 167.7 56.4 Q 167.15 57.85 166.85 59.55 Q 166.8 60.05 166.7 60.55 Z M 197.9 73 Q 208.05 72.65 209 68.6 Q 208.05 64.6 197.9 64.25 Q 187.8 64.6 186.85 68.6 Q 187.8 72.65 197.9 73 Z M 143.2 68.9 Q 141.55 72.85 142.4 80.75 Q 143.15 87.9 146 93.85 Q 136.85 92.65 128.05 91.4 Q 136.85 92.65 146 93.85 Q 146.25 94.4 146.55 95 Q 149.9 101.4 155.5 100.85 Q 159 99.8 161.5 94.55 Q 174.55 92.95 180.2 92.2 Q 174.55 92.95 161.5 94.55 Q 161.95 93.55 162.4 92.4 Q 165.05 85.25 166.35 77.2 Q 167.55 69.2 167.45 65.4 Q 161.65 68.2 154.35 69.05 Q 147 70 141.95 66.45 Z M 206.7 47.85 Q 202.65 38.75 200.2 36.55 Q 202.65 38.75 206.7 47.85 Z M 161.65 193.55 L 173.95 193.55 Q 189.9 188.4 197.55 178.35 Q 189.9 188.4 173.95 193.55 Z M 129.4 23.6 Q 130.4 22.4 131.95 21.5 Q 130.4 22.4 129.4 23.6 L 129.4 24.15 L 133 24.1 Q 133.1 23.75 133.4 23.55 Z M 97.65 55.9 L 101.6 44.25 Q 103.4 39 107.1 35.6 Q 103.4 39 101.6 44.25 Z M 110.55 38.4 L 110.55 38.9 Q 110.6 38.7 110.75 38.5 Q 110.6 38.5 110.55 38.4 Z M 142.05 61.55 Q 141.95 61.05 141.9 60.55 Q 141.55 58.1 140.45 56.25 Q 140.15 55.75 139.8 55.15 Q 137.8 52.45 134.2 51 Q 127.1 48.2 120.05 50.4 Q 113.05 52.6 112.6 60 Q 110.6 56.7 112.9 52.95 Q 115.3 49.2 121.45 48 Q 132.05 46.75 136.65 51.45 Q 138.5 53.3 139.8 55.15 Q 138.5 53.3 136.65 51.45 Q 132.05 46.75 121.45 48 Q 115.3 49.2 112.9 52.95 Q 110.6 56.7 112.6 60 Q 113.05 52.6 120.05 50.4 Q 127.1 48.2 134.2 51 Q 137.8 52.45 139.8 55.15 Q 140.15 55.75 140.45 56.25 Q 141.55 58.1 141.9 60.55 Q 141.95 61.05 142.05 61.55 Z M 120.55 68.35 Q 119.6 64.3 109.45 63.95 Q 99.3 64.3 98.4 68.35 Q 99.3 72.35 109.45 72.7 Q 119.6 72.35 120.55 68.35 Z M 109.4 182.5 Q 117.25 191.35 133.9 193.55 L 146.7 193.55 L 133.9 193.55 Q 117.25 191.35 109.4 182.5 Z" fill="#CE6B2B"/>
		<path d="M 182.9 22.3 L 182.65 22.15 L 182.75 22.15 L 182.9 22.3 L 183.25 22.65 L 179.5 22.8 Q 179.2 22.5 178.95 22.25 L 182.65 22.15 Z M 129.4 23.6 L 133.4 23.55 Q 133.1 23.75 133 24.1 L 129.4 24.15 Z M 110.55 38.4 Q 110.6 38.5 110.75 38.5 Q 110.6 38.7 110.55 38.9 Z" fill="#43A837"/>
		<path d="M 197.9 73 Q 187.8 72.65 186.85 68.6 Q 187.8 64.6 197.9 64.25 Q 208.05 64.6 209 68.6 Q 208.05 72.65 197.9 73 Z M 120.55 68.35 Q 119.6 72.35 109.45 72.7 Q 99.3 72.35 98.4 68.35 Q 99.3 64.3 109.45 63.95 Q 119.6 64.3 120.55 68.35 Z" fill="#FDDBED"/>
		<path d="M 146 93.85 Q 143.15 87.9 142.4 80.75 Q 141.55 72.85 143.2 68.9 L 141.95 66.45 Q 147 70 154.35 69.05 Q 161.65 68.2 167.45 65.4 Q 167.55 69.2 166.35 77.2 Q 165.05 85.25 162.4 92.4 Q 161.95 93.55 161.5 94.55 Q 159 99.8 155.5 100.85 Q 149.9 101.4 146.55 95 Q 146.25 94.4 146 93.85 Z" fill="#FEE6F2"/>
		<path d="M 66.55 96.45 Q 65.05 98.4 63.35 99.75 Q 59.55 102.65 54.5 102.9 Q 52.55 102.95 50.4 102.65 L 53.65 101.4 L 62.35 98.05 Z" fill="#0572B1"/>
		<path d="M 53.65 101.4 L 48.3 92.05 L 43.925 84.45 L 52.4 80.75 L 57.8 90.1 L 62.35 98.05 Z" fill="#FF9900"/>
		<path d="M 40.675 85.85 Q 34.9998 67.64 39.1 47.475 L 57.35 78.6 L 52.4 80.75 L 43.925 84.45 Z" fill="#666666"/>
		<path d="M 39.1 47.475 Q 34.9998 67.64 40.675 85.85 L 34.35 88.6 Q 24.348 62.7252 31.85 35.1 Z" fill="#FFFFFF"/>
		<path d="M 48.3 92.05 L 43.925 84.45 M 52.4 80.75 L 57.8 90.1 M 62.35 98.05 L 57.8 90.1 M 48.3 92.05 L 53.65 101.4" fill="none" stroke-width="4" stroke-linejoin="round" stroke-linecap="round" stroke="#000000"/>
		<path d="M 228.85 91.15 Q 236.9 90.5 247.45 90.05 Q 249.85 89.95 261.5 92.05 Q 263.25 92.75 264.8 93.65 Q 271.55 97.65 268.1 110.4 M 41.65 110.4 Q 38.2 97.65 45 93.65 Q 46.55 92.75 48.3 92.05 M 43.925 84.45 L 40.675 85.85 L 34.35 88.6 Q 24.348 62.7252 31.85 35.1 L 39.1 47.475 L 57.35 78.6 L 52.4 80.75 M 57.8 90.1 Q 59.95 89.95 62.35 90.05 Q 72.85 90.5 80.9 91.15 M 161.5 94.55 Q 174.55 92.95 180.2 92.2 M 146 93.85 Q 136.85 92.65 128.05 91.4 M 43.925 84.45 L 52.4 80.75" fill="none" stroke-width="5" stroke-linejoin="round" stroke="#000000"/>
		<path d="M 268.1 110.4 Q 263.6 123.15 251 125.5 Q 238.45 127.95 224.2 125.2 Q 218.5 124.35 207.5 121.8 Q 200.25 120.05 194 117.3 Q 212.95 157.9 197.55 178.35 Q 200.6 188.35 202 202.85 L 203.55 220.9 Q 204.45 231.5 205.65 237.95 L 206.95 243.7 Q 207.7 247.1 207.7 249.25 Q 207.7 255.5 201.7 258.3 Q 197.65 260.2 187.2 259.85 L 172 259 Q 162.5 258.95 158.85 256.2 Q 155.75 253.9 156.25 249.1 Q 156.45 246.6 158.85 239.25 Q 161.1 232 161.4 227.8 Q 162.05 218.4 161.85 205.15 L 161.65 193.55 L 146.7 193.55 L 146.5 203.85 Q 146.2 217.1 146.95 226.5 Q 147.2 230.7 149.5 237.95 Q 151.85 245.3 152.1 247.9 Q 152.6 252.6 149.45 254.9 Q 145.85 257.65 136.4 257.7 L 121.15 258.55 Q 110.75 258.9 106.7 257.05 Q 100.6 254.2 100.7 247.95 Q 100.7 245.8 101.45 242.4 L 102.75 236.65 Q 103.95 230.2 104.85 219.7 L 106.4 201.55 Q 107.45 190.8 109.4 182.5 Q 93.3 164.3 114.3 117.95 Q 108.65 120.25 102.25 121.8 Q 91.25 124.35 85.55 125.15 Q 84.7 125.3 83.85 125.5 Q 70.55 127.8 58.75 125.5 Q 46.25 123.15 41.65 110.4 M 80.9 91.15 Q 82.4 91.1 83.85 91.1 Q 98.25 90.75 111.2 91.35 Q 119.55 91.7 124.95 96.9 Q 126.4 94.15 128.05 91.4 Q 126.95 91.2 125.85 91.05 Q 113.9 89.6 104.3 84.25 Q 100.05 81.85 97.75 78.55 Q 94.8 74.3 94.95 68.5 Q 95.6 62.15 97.65 55.95 Q 97.6 55.9 97.5 55.8 L 94 51.3 Q 90.4 45.8 89.05 39.05 Q 87.1 28.9 94.15 20.45 Q 101.55 13.15 112.35 14.05 Q 122.85 14.75 131.95 21.5 Q 141.25 15.85 155.85 15.6 Q 171 15.35 181.1 20.65 Q 184.1 13.75 193.25 14.3 Q 202.4 14.9 207.35 19 Q 209.05 20.7 210.35 22.75 Q 213.55 27.65 213.6 33.75 Q 213.65 42.3 206.7 47.85 Q 207.9 51.55 209 54.8 Q 211.65 62 212.4 69.4 Q 212.65 79.85 203.05 85.15 Q 193.45 90.55 181.5 92 Q 180.9 92.1 180.2 92.2 Q 182.05 95.15 183.75 98.05 Q 189.3 91.75 198.55 91.35 Q 212.9 90.7 228.85 91.15 M 182.65 22.15 L 181.1 20.65 M 182.9 22.3 L 182.65 22.15 M 206.7 47.85 Q 202.65 38.75 200.2 36.55 M 161.65 193.55 L 173.95 193.55 Q 189.9 188.4 197.55 178.35 M 194 117.3 Q 189.75 108.2 183.75 98.05 M 129.4 23.6 Q 130.4 22.4 131.95 21.5 M 97.65 55.9 L 101.6 44.25 Q 103.4 39 107.1 35.6 M 97.65 55.95 L 97.65 55.9 M 50.4 102.65 Q 52.55 102.95 54.5 102.9 Q 59.55 102.65 63.35 99.75 Q 65.05 98.4 66.55 96.45 M 109.4 182.5 Q 117.25 191.35 133.9 193.55 L 146.7 193.55 M 124.95 96.9 Q 118.75 108.05 114.3 117.95" fill="none" stroke-width="5" stroke-linejoin="round" stroke-linecap="round" stroke="#000000"/>
		<path d="M 166.7 60.55 Q 166.8 60.05 166.85 59.55 Q 167.15 57.85 167.7 56.4 Q 168.45 54.95 169.45 53.6 Q 170.6 52 172.1 50.4 Q 176.8 45.75 187.3 46.95 Q 193.55 48.2 195.85 51.95 Q 198.2 55.65 196.1 59 Q 195.7 51.65 188.7 49.4 Q 181.65 47.2 174.55 50 Q 171.4 51.3 169.45 53.6 M 141.95 66.45 Q 147 70 154.35 69.05 Q 161.65 68.2 167.45 65.4 Q 167.55 69.2 166.35 77.2 Q 165.05 85.25 162.4 92.4 Q 161.95 93.55 161.5 94.55 Q 159 99.8 155.5 100.85 Q 149.9 101.4 146.55 95 Q 146.25 94.4 146 93.85 Q 143.15 87.9 142.4 80.75 Q 141.55 72.85 143.2 68.9 M 142.05 61.55 Q 141.95 61.05 141.9 60.55 Q 141.55 58.1 140.45 56.25 Q 140.15 55.75 139.8 55.15 Q 137.8 52.45 134.2 51 Q 127.1 48.2 120.05 50.4 Q 113.05 52.6 112.6 60 Q 110.6 56.7 112.9 52.95 Q 115.3 49.2 121.45 48 Q 132.05 46.75 136.65 51.45 Q 138.5 53.3 139.8 55.15" fill="none" stroke-width="3" stroke-linejoin="round" stroke-linecap="round" stroke="#000000"/>
		<path d="M 39.1 47.475 Q 34.9998 67.64 40.675 85.85" fill="none" stroke-width="2" stroke-linejoin="round" stroke="#000000"/>
	</g>
</svg>
