<svg width="166" height="253" xmlns="http://www.w3.org/2000/svg"><path d="M141.726 58.005q.8 9.6-9.35 15.85-8.25 4.9-21.55 6.8l-.85.1q9.7-.2 17.7 9.05 3.4 3.95 8.5 12.1 6.25 9.95 8.55 13.15l8.4 10.85q5.55 7.35 7.75 12.55 6.55 15.15-10.35 20.2-9.25 2.8-17.45-2.3-1.75 6.3-5.6 11.4 3.1 10.1 4.5 24.7l1.6 18.15q.85 10.6 2.1 17.1l1.3 5.8q.8 3.45.8 5.6 0 6.25-6.05 9.15-4.1 1.95-14.65 1.5l-15.25-.85q-9.5-.05-13.2-2.8-3.1-2.25-2.6-7.05.2-2.55 2.6-10.05 2.3-7.2 2.6-11.55.65-9.4.45-22.7l-.2-11.75h-15.1l-.2 10.4q-.3 13.35.4 22.75.3 4.3 2.6 11.55 2.4 7.45 2.6 9.95.5 4.85-2.65 7.15-3.6 2.75-13.1 2.8l-15.35.85q-10.45.4-14.55-1.55-6.15-2.85-6.05-9.1 0-2.25.75-5.7l1.3-5.7q1.25-6.55 2.1-17.15l1.6-18.15q1.05-10.9 3.05-19.3-4.8-5.5-6.3-13.45-8.4 5.4-17.85 2.55-16.95-5.05-10.4-20.2 2.3-5.2 7.8-12.55l8.35-10.8q2.3-3.2 8.55-13.15 5.15-8.2 8.5-12.1 8.3-9.6 18.5-9.1.8-1.45 1.65-2.9-1.35-.2-2.75-.4-13.35-1.85-21.55-6.75-4.45-2.75-6.85-6.15-2.95-4.4-2.5-9.75.4-5.7 2.65-12.45 0-.05.05-.15-7.7-11.1-8.65-16.8-1.85-11.1 5.05-18.75 6.5-7 18.3-6.35 10.45.5 19.6 7.35 8.6-5.45 24-5.8 8.15-.15 15.35 1.4 5.85 1.3 9.95 3.65 1.95-6.65 12.25-6.35 4.1.15 8.05 1.45 5.05 1.8 8 5.4 4.25 5.25 4.3 12.6 0 9.15-6.95 14.2 5.4 17 5.75 21.55zm-80.7-48.1q-1.5.9-2.75 2.05 1.25-1.15 2.75-2.05zm49.3-.75 2.15 1.3zm-83.6 35.3 3.9-11.6q2.4-6.05 5.55-8.65-3.15 2.6-5.55 8.65zm4 15.6q3.3 1.25 7.85 1.25 4.5 0 7.85-1.25 3.25-1.3 3.25-3.1 0-1.85-3.25-3.05-3.25-1.3-7.85-1.3-4.65 0-7.85 1.3-3.25 1.2-3.25 3.05 0 1.8 3.25 3.1zm18.55-7.4q16.6 4.85 20.35-10.6l-26.75-6.4 26.75 6.4q-3.75 15.45-20.35 10.6 13.55-2.65 12.05-11.75l-18.45-5.25q-3.05 12.8 4.45 16.3.9.4 1.95.7-1.05-.3-1.95-.7-7.5-3.5-4.45-16.3l18.45 5.25q1.5 9.1-12.05 11.75zm-6.4-17q-5.55 12.1 4.45 16.3-10-4.2-4.45-16.3zm80.75-.2q6.05 13.25-6.4 17-16.65 4.85-20.4-10.6l19.75-4.7 7.05-1.7-7.05 1.7-19.75 4.7q3.75 15.45 20.4 10.6 12.45-3.75 6.4-17zm3.6 26.1q4.65 0 7.85-1.3 3.25-1.3 3.25-3.1t-3.25-3.05q-3.3-1.3-7.85-1.3-4.6 0-7.9 1.3-3.3 1.25-3.3 3.05 0 1.85 3.3 3.1 3.25 1.3 7.9 1.3zm-10.65-24.4q6.85 10.6-5.05 15.5-9.65 2.9-14.7-10.8 5.05 13.7 14.7 10.8 11.9-4.9 5.05-15.5zm-23.1 17.9v22.85h-19.05v-22.85h19.05-19.05v22.85h19.05zm39.6 101.3q7.35-26.65-23.1-75.6l-24.1 2.9q-6.8-.65-28.2-3.55 21.4 2.9 28.2 3.55l24.1-2.9q30.45 48.95 23.1 75.6zm-56.7 26.65h-12.8q-16.85-2.2-24.7-11.2 7.85 9 24.7 11.2zm51.1-15.25q-7.65 10.1-23.7 15.25h-12.3 12.3q16.05-5.15 23.7-15.25zm-94.9-9.4q-4.7-25.2 23.45-75.35-28.15 50.15-23.45 75.35zm96.95-133.2q2.1 1.8 6.45 11.3-4.35-9.5-6.45-11.3z" fill="#FFF"/><path d="M30.726 60.055q-3.25-1.3-3.25-3.1 0-1.85 3.25-3.05 3.2-1.3 7.85-1.3 4.6 0 7.85 1.3 3.25 1.2 3.25 3.05 0 1.8-3.25 3.1-3.35 1.25-7.85 1.25-4.55 0-7.85-1.25zm96.5 1.5q-4.65 0-7.9-1.3-3.3-1.25-3.3-3.1 0-1.8 3.3-3.05 3.3-1.3 7.9-1.3 4.55 0 7.85 1.3 3.25 1.25 3.25 3.05 0 1.8-3.25 3.1-3.2 1.3-7.85 1.3z" fill="#B3B3B3"/><path d="M141.726 58.005q.8 9.6-9.35 15.85-8.25 4.9-21.55 6.8l-.85.1q9.7-.2 17.7 9.05 3.4 3.95 8.5 12.1 6.25 9.95 8.55 13.15l8.4 10.85q5.55 7.35 7.75 12.55 6.55 15.15-10.35 20.2-9.25 2.8-17.45-2.3-1.75 6.3-5.6 11.4 3.1 10.1 4.5 24.7l1.6 18.15q.85 10.6 2.1 17.1l1.3 5.8q.8 3.45.8 5.6 0 6.25-6.05 9.15-4.1 1.95-14.65 1.5l-15.25-.85q-9.5-.05-13.2-2.8-3.1-2.25-2.6-7.05.2-2.55 2.6-10.05 2.3-7.2 2.6-11.55.65-9.4.45-22.7l-.2-11.75h-15.1l-.2 10.4q-.3 13.35.4 22.75.3 4.3 2.6 11.55 2.4 7.45 2.6 9.95.5 4.85-2.65 7.15-3.6 2.75-13.1 2.8l-15.35.85q-10.45.4-14.55-1.55-6.15-2.85-6.05-9.1 0-2.25.75-5.7l1.3-5.7q1.25-6.55 2.1-17.15l1.6-18.15q1.05-10.9 3.05-19.3-4.8-5.5-6.3-13.45-8.4 5.4-17.85 2.55-16.95-5.05-10.4-20.2 2.3-5.2 7.8-12.55l8.35-10.8q2.3-3.2 8.55-13.15 5.15-8.2 8.5-12.1 8.3-9.6 18.5-9.1.8-1.45 1.65-2.9-1.35-.2-2.75-.4-13.35-1.85-21.55-6.75-4.45-2.75-6.85-6.15-2.95-4.4-2.5-9.75.4-5.7 2.65-12.45 0-.05.05-.15-7.7-11.1-8.65-16.8-1.85-11.1 5.05-18.75 6.5-7 18.3-6.35 10.45.5 19.6 7.35 8.6-5.45 24-5.8 8.15-.15 15.35 1.4 5.85 1.3 9.95 3.65 1.95-6.65 12.25-6.35 4.1.15 8.05 1.45 5.05 1.8 8 5.4 4.25 5.25 4.3 12.6 0 9.15-6.95 14.2 5.4 17 5.75 21.55zm-80.7-48.1q-1.5.9-2.75 2.05m52.05-2.8 2.15 1.3m-85.75 34 3.9-11.6q2.4-6.05 5.55-8.65m96.9 132.15q7.35-26.65-23.1-75.6l-24.1 2.9q-6.8-.65-28.2-3.55m18.7 102.9h-12.8q-16.85-2.2-24.7-11.2m88.6-4.05q-7.65 10.1-23.7 15.25h-12.3m-58.9-24.65q-4.7-25.2 23.45-75.35m73.5-57.85q2.1 1.8 6.45 11.3" fill="none" stroke-width="5" stroke-linejoin="round" stroke-linecap="round" stroke="#000"/><path d="M49.276 52.655q13.55-2.65 12.05-11.75l-18.45-5.25q-3.05 12.8 4.45 16.3.9.4 1.95.7 16.6 4.85 20.35-10.6l-26.75-6.4q-5.55 12.1 4.45 16.3m76.3-16.5q6.05 13.25-6.4 17-16.65 4.85-20.4-10.6l19.75-4.7zm-7.05 1.7q6.85 10.6-5.05 15.5-9.65 2.9-14.7-10.8m-3.35 13.2v22.85h-19.05v-22.85z" fill="none" stroke-width="3" stroke-linejoin="round" stroke-linecap="round" stroke="#000"/></svg>