<svg width="108" height="100" xmlns="http://www.w3.org/2000/svg"><path d="M55.85 72.7v-3.45q20.698.151 35.55 3.15 14.719 2.972 15.55 7.1.05.249.05.5 0 .249-.05.5-.077.376-.275.75-.134.25-.325.5-2.5 3.35-14.95 5.85-15.6 3.15-37.65 3.15-22.05 0-37.65-3.15-12.45-2.5-14.95-5.85-.191-.25-.325-.5Q.52 80.673.5 80.075v-.125q.082-4.417 15.6-7.55 14.564-2.94 34.75-3.125v3.45q-14.736.183-25.4 2.325-11.7 2.35-11.7 5.65 0 .7.45 1.3 1.9 2.5 11.25 4.4 11.7 2.35 28.3 2.35 16.55 0 28.25-2.35 9.35-1.9 11.25-4.4.5-.6.5-1.3 0-3.3-11.75-5.65-10.95-2.2-26.15-2.35z" fill="#3CF"/><path d="M50.85 69.275V64.5h-37.1V.5h80v64h-37.9v8.2q15.2.15 26.15 2.35 11.75 2.35 11.75 5.65 0 .7-.5 1.3-1.9 2.5-11.25 4.4-11.7 2.35-28.25 2.35-16.6 0-28.3-2.35Q16.1 84.5 14.2 82q-.45-.6-.45-1.3 0-3.3 11.7-5.65 10.665-2.142 25.4-2.325zm5-4.775h-5zm0 15.475v2.375q-2.3 1.45-5 0V80v2.35q2.7 1.45 5 0zm-5-2.25v-5 5q-8.495.182-14.75 1.425-7.35 1.45-7.35 3.55 0 .4.3.8 1.2 1.6 7.05 2.75 7.3 1.5 17.65 1.5 10.35 0 17.7-1.5 5.85-1.15 7-2.75.3-.4.3-.8 0-2.1-7.3-3.55-6.593-1.3-15.6-1.425v2.25q4.873.123 8.55.825 4.35.9 4.35 2.1 0 .3-.15.5-.75.9-4.2 1.65-4.45.9-10.65.9-6.25 0-10.6-.9-3.5-.75-4.25-1.65-.15-.2-.15-.5 0-1.2 4.4-2.1 3.303-.645 7.7-.8v-2.275V80q-4.398.155-7.7.8-4.4.9-4.4 2.1 0 .3.15.5.75.9 4.25 1.65 4.35.9 10.6.9 6.2 0 10.65-.9 3.45-.75 4.2-1.65.15-.2.15-.5 0-1.2-4.35-2.1-3.677-.702-8.55-.825v-2.25q9.007.124 15.6 1.425 7.3 1.45 7.3 3.55 0 .4-.3.8-1.15 1.6-7 2.75-7.35 1.5-17.7 1.5t-17.65-1.5q-5.85-1.15-7.05-2.75-.3-.4-.3-.8 0-2.1 7.35-3.55 6.255-1.243 14.75-1.425zm5-5.025v5.025zm27.1 18.8q-12.817 1.75-29.2 1.75-16.38 0-29.2-1.75-.402-.053-.8-.1-4.002-.563-7.65-1.3-12.45-2.5-14.95-5.85-.63-.823-.65-1.7v-.125q.02-.604.325-1.175.134.25.325.5 2.5 3.35 14.95 5.85 15.6 3.15 37.65 3.15 22.05 0 37.65-3.15 12.45-2.5 14.95-5.85.191-.25.325-.5.198.37.275.75.05.25.05.5 0 .249-.05.5-.13.635-.6 1.25-2.5 3.35-14.95 5.85-3.647.736-7.65 1.3v-.35.35q-.398.046-.8.1.78.68.8 1.425v.05q-.01.49-.35.925-1.4 1.95-8.4 3.3Q66.15 99 53.75 99t-21.2-1.8q-7-1.35-8.45-3.3-.34-.436-.35-.925v-.05q.02-.745.8-1.425 12.82 1.75 29.2 1.75 16.383 0 29.2-1.75zm24-9.5v1z" fill="#FFF"/><path d="M50.85 72.725v-3.45q-20.186.184-34.75 3.125Q.582 75.533.5 79.95v.125m106.45.425q.05-.251.05-.5 0-.251-.05-.5-.831-4.128-15.55-7.1-14.852-2.999-35.55-3.15V79.975q4.873.123 8.55.825 4.35.9 4.35 2.1 0 .3-.15.5-.75.9-4.2 1.65-4.45.9-10.65.9-6.25 0-10.6-.9-3.5-.75-4.25-1.65-.15-.2-.15-.5 0-1.2 4.4-2.1 3.303-.645 7.7-.8v-7.275M83.75 91.4q-.398.046-.8.1-12.817 1.75-29.2 1.75-16.38 0-29.2-1.75-.402-.053-.8-.1m60 1.525V91.4m23.2-8.4q-.13.635-.6 1.25-2.5 3.35-14.95 5.85-3.647.736-7.65 1.3m0 1.525v.05q-.01.49-.35.925-1.4 1.95-8.4 3.3Q66.15 99 53.75 99t-21.2-1.8q-7-1.35-8.45-3.3-.34-.436-.35-.925V91.4q-4.002-.563-7.65-1.3-12.45-2.5-14.95-5.85-.63-.823-.65-1.7v-2.475M83.75 91.05v.35m23.2-9.4v1m0-2.5V82m-56.1-12.725V64.5h-37.1V.5h80v64h-37.9v4.75m0-4.75h-5m5 15.475v2.375q-2.3 1.45-5 0V80" fill="none" stroke-linejoin="round" stroke="#000"/><path d="M.825 81.25q.134.25.325.5 2.5 3.35 14.95 5.85 15.6 3.15 37.65 3.15 22.05 0 37.65-3.15 12.45-2.5 14.95-5.85.191-.25.325-.5" fill="none" stroke-width=".5" stroke-linejoin="round" stroke="#000"/><path d="M50.85 77.725q-8.495.182-14.75 1.425-7.35 1.45-7.35 3.55 0 .4.3.8 1.2 1.6 7.05 2.75 7.3 1.5 17.65 1.5 10.35 0 17.7-1.5 5.85-1.15 7-2.75.3-.4.3-.8 0-2.1-7.3-3.55-6.593-1.3-15.6-1.425" fill="none" stroke-width=".5" stroke-linejoin="round" stroke="#666"/></svg>